# xmcd
#
# Track frame offsets:
# 150
# 14950
# 25127
# 39220
# 54410
# 66132
# 79590
# 93505
# 106925
# 118930
# 131437
# 147977
# 160725
# 174415
# 190395
# 204042
# 216895
# 227652
# 239117
# 252677
#
# Disc length: 3565 seconds
#
#
# Revision: 3
# Processed by: cddbd v1.5.1PL2 Copyright (c) Steve Scherf et al.
# Submitted via: FreeRIP 2.945 
#
DISCID=1b0deb14
DTITLE=Zé Fortuna e Pitangueira - Raízes Sertanejas
DYEAR=1900
DGENRE=Sertaneja
TTITLE0=Paineira Velha
TTITLE1=Mané Preguiça
TTITLE2=Cabra Macho
TTITLE3=Drama da Vida
TTITLE4=Divna Pecadora
TTITLE5=Pequeno Mundo
TTITLE6=Lenda da Valsa dos Noivos
TTITLE7=Retalhos de Amor
TTITLE8=Mundo Louco
TTITLE9=Flor do Baile
TTITLE10=Cão Fiel
TTITLE11=As Duas Sombras
TTITLE12=A Última Valsa
TTITLE13=Lembrança
TTITLE14=O Selo de Sangue
TTITLE15=Três Batidas na Porteira
TTITLE16=De Olho Nela
TTITLE17=A Sanfona e o Violão
TTITLE18=Fui Eu
TTITLE19=A Justiça de Um Filho
EXTD=
EXTT0=
EXTT1=
EXTT2=
EXTT3=
EXTT4=
EXTT5=
EXTT6=
EXTT7=
EXTT8=
EXTT9=
EXTT10=
EXTT11=
EXTT12=
EXTT13=
EXTT14=
EXTT15=
EXTT16=
EXTT17=
EXTT18=
EXTT19=
PLAYORDER=
